<?xml version="1.0" encoding="UTF-8"?>
<svg width="24" height="24" viewBox="0 0 512 512" fill="currentColor" xmlns="http://www.w3.org/2000/svg">
<rect width="416" height="320" x="48" y="96" fill="none" strokeLinejoin="round" strokeWidth="32" rx="28" ry="28"/><rect width="80" height="80" x="384" y="336" fill="none" strokeLinejoin="round" strokeWidth="32" rx="28" ry="28"/><rect width="80" height="80" x="384" y="256" fill="none" strokeLinejoin="round" strokeWidth="32" rx="28" ry="28"/><rect width="80" height="80" x="384" y="176" fill="none" strokeLinejoin="round" strokeWidth="32" rx="28" ry="28"/><rect width="80" height="80" x="384" y="96" fill="none" strokeLinejoin="round" strokeWidth="32" rx="28" ry="28"/><rect width="80" height="80" x="48" y="336" fill="none" strokeLinejoin="round" strokeWidth="32" rx="28" ry="28"/><rect width="80" height="80" x="48" y="256" fill="none" strokeLinejoin="round" strokeWidth="32" rx="28" ry="28"/><rect width="80" height="80" x="48" y="176" fill="none" strokeLinejoin="round" strokeWidth="32" rx="28" ry="28"/><rect width="80" height="80" x="48" y="96" fill="none" strokeLinejoin="round" strokeWidth="32" rx="28" ry="28"/><rect width="256" height="160" x="128" y="96" fill="none" strokeLinejoin="round" strokeWidth="32" rx="28" ry="28"/><rect width="256" height="160" x="128" y="256" fill="none" strokeLinejoin="round" strokeWidth="32" rx="28" ry="28"/>
</svg>